<svg width="33" height="33" viewBox="0 0 33 33" fill="none" xmlns="http://www.w3.org/2000/svg">
<path d="M13.7927 22.7745C13.4615 23.1175 13.2783 23.5767 13.2824 24.0535C13.2866 24.5302 13.4778 24.9862 13.8149 25.3233C14.152 25.6604 14.608 25.8516 15.0847 25.8558C15.5614 25.8599 16.0207 25.6766 16.3636 25.3455L24.52 17.0073C24.6047 16.9228 24.6718 16.8225 24.7177 16.7121C24.7635 16.6016 24.7871 16.4832 24.7871 16.3636C24.7871 16.2441 24.7635 16.1257 24.7177 16.0152C24.6718 15.9048 24.6047 15.8044 24.52 15.72L16.3236 7.42545C15.9807 7.09426 15.5214 6.911 15.0447 6.91514C14.568 6.91928 14.112 7.1105 13.7749 7.4476C13.4378 7.78471 13.2466 8.24073 13.2424 8.71745C13.2383 9.19417 13.4215 9.65345 13.7527 9.99636L18.1818 14.5455H1.81818C1.33597 14.5455 0.873508 14.737 0.532533 15.078C0.191558 15.419 0 15.8814 0 16.3636C0 16.8458 0.191558 17.3083 0.532533 17.6493C0.873508 17.9903 1.33597 18.1818 1.81818 18.1818H18.1818L13.7927 22.7745ZM29.0909 0H12.7273C12.2451 0 11.7826 0.191558 11.4416 0.532533C11.1006 0.873508 10.9091 1.33597 10.9091 1.81818C10.9091 2.30039 11.1006 2.76286 11.4416 3.10383C11.7826 3.44481 12.2451 3.63636 12.7273 3.63636H27.2727C27.7549 3.63636 28.2174 3.82792 28.5584 4.1689C28.8994 4.50987 29.0909 4.97233 29.0909 5.45455V27.2727C29.0909 27.7549 28.8994 28.2174 28.5584 28.5584C28.2174 28.8994 27.7549 29.0909 27.2727 29.0909H12.7273C12.2451 29.0909 11.7826 29.2825 11.4416 29.6234C11.1006 29.9644 10.9091 30.4269 10.9091 30.9091C10.9091 31.3913 11.1006 31.8538 11.4416 32.1947C11.7826 32.5357 12.2451 32.7273 12.7273 32.7273H29.0909C30.0553 32.7273 30.9803 32.3442 31.6622 31.6622C32.3442 30.9803 32.7273 30.0553 32.7273 29.0909V3.63636C32.7273 2.67194 32.3442 1.74702 31.6622 1.06507C30.9803 0.383116 30.0553 0 29.0909 0Z" fill="#D9D9D9"/>
</svg>