<svg width="45" height="45" viewBox="0 0 45 45" fill="none" xmlns="http://www.w3.org/2000/svg">
<path d="M34.9612 27.7734H16.9322C16.633 27.7739 16.3426 27.6727 16.1086 27.4863C15.8746 27.2999 15.711 27.0394 15.6446 26.7478L12.6088 13.522C12.5644 13.3288 12.5641 13.1281 12.608 12.9347C12.6519 12.7414 12.7389 12.5605 12.8624 12.4054C12.9858 12.2503 13.1427 12.1251 13.3213 12.039C13.4999 11.953 13.6955 11.9083 13.8938 11.9083H37.9995C38.198 11.9079 38.394 11.9523 38.5729 12.0382C38.7518 12.1241 38.909 12.2493 39.0328 12.4044C39.1566 12.5595 39.2437 12.7406 39.2878 12.9341C39.3318 13.1276 39.3316 13.3286 39.2871 13.522L36.2461 26.7478C36.1798 27.039 36.0166 27.2991 35.7831 27.4854C35.5497 27.6718 35.2599 27.7733 34.9612 27.7734ZM17.9816 25.1367H33.9117L36.3437 14.5477H15.5488L17.9816 25.1367Z" fill="#D9D9D9"/>
<path d="M19.5117 39.5508C18.5125 39.5508 17.5357 39.2545 16.705 38.6994C15.8742 38.1443 15.2266 37.3552 14.8443 36.4321C14.4619 35.509 14.3619 34.4932 14.5568 33.5132C14.7517 32.5333 15.2329 31.6331 15.9394 30.9266C16.6459 30.22 17.5461 29.7389 18.5261 29.5439C19.5061 29.349 20.5218 29.4491 21.445 29.8314C22.3681 30.2138 23.1571 30.8613 23.7122 31.6921C24.2673 32.5229 24.5636 33.4996 24.5636 34.4988C24.5622 35.8383 24.0295 37.1224 23.0824 38.0696C22.1353 39.0167 20.8511 39.5494 19.5117 39.5508ZM19.5117 32.0845C19.0339 32.0845 18.567 32.2261 18.1697 32.4916C17.7725 32.757 17.463 33.1343 17.2802 33.5756C17.0974 34.017 17.0496 34.5027 17.1429 34.9712C17.2362 35.4398 17.4663 35.8701 17.8042 36.2078C18.142 36.5456 18.5725 36.7755 19.041 36.8686C19.5096 36.9617 19.9952 36.9138 20.4366 36.7308C20.8779 36.5479 21.255 36.2382 21.5203 35.8409C21.7856 35.4436 21.9271 34.9766 21.9269 34.4988C21.9262 33.8586 21.6715 33.2447 21.2187 32.7921C20.7659 32.3394 20.1519 32.0849 19.5117 32.0845Z" fill="#D9D9D9"/>
<path d="M32.3807 39.5508C31.3815 39.5508 30.4048 39.2545 29.574 38.6994C28.7432 38.1443 28.0957 37.3552 27.7133 36.4321C27.3309 35.509 27.2309 34.4932 27.4258 33.5132C27.6207 32.5333 28.1019 31.6331 28.8084 30.9266C29.5149 30.22 30.4151 29.7389 31.3951 29.5439C32.3751 29.349 33.3909 29.4491 34.314 29.8314C35.2371 30.2138 36.0261 30.8613 36.5812 31.6921C37.1364 32.5229 37.4326 33.4996 37.4326 34.4988C37.4312 35.8383 36.8985 37.1224 35.9514 38.0696C35.0043 39.0167 33.7201 39.5494 32.3807 39.5508ZM32.3807 32.0845C31.903 32.0845 31.436 32.2261 31.0388 32.4916C30.6416 32.757 30.332 33.1343 30.1492 33.5756C29.9664 34.017 29.9187 34.5027 30.0119 34.9712C30.1052 35.4398 30.3353 35.8701 30.6732 36.2078C31.011 36.5456 31.4415 36.7755 31.91 36.8686C32.3786 36.9617 32.8643 36.9138 33.3056 36.7308C33.7469 36.5479 34.124 36.2382 34.3893 35.8409C34.6546 35.4436 34.7961 34.9766 34.7959 34.4988C34.7952 33.8586 34.5405 33.2447 34.0877 32.7921C33.6349 32.3394 33.021 32.0849 32.3807 32.0845Z" fill="#D9D9D9"/>
<path d="M13.8938 14.545C13.617 14.545 13.3473 14.4579 13.1228 14.296C12.8984 14.1342 12.7305 13.9058 12.6431 13.6433L10.3834 6.85547H6.21387C5.86422 6.85547 5.52889 6.71657 5.28165 6.46933C5.03441 6.22209 4.89551 5.88676 4.89551 5.53711C4.89551 5.18746 5.03441 4.85213 5.28165 4.60489C5.52889 4.35765 5.86422 4.21875 6.21387 4.21875H11.3379C11.6146 4.21878 11.8843 4.30588 12.1088 4.46773C12.3333 4.62958 12.5011 4.85795 12.5886 5.12051L15.1488 12.8101C15.2148 13.0082 15.2328 13.2192 15.2013 13.4257C15.1697 13.6322 15.0896 13.8282 14.9675 13.9976C14.8453 14.167 14.6847 14.305 14.4988 14.4002C14.3129 14.4954 14.107 14.545 13.8981 14.545H13.8938Z" fill="#D9D9D9"/>
</svg>
