<svg width="55" height="55" viewBox="0 0 55 55" fill="none" xmlns="http://www.w3.org/2000/svg">
<path d="M21.71 48.3398C21.3913 48.3398 21.0798 48.2452 20.8148 48.0681C20.5498 47.8909 20.3434 47.6392 20.2215 47.3447C20.0996 47.0503 20.0678 46.7262 20.1301 46.4137C20.1923 46.1011 20.3459 45.814 20.5713 45.5888L39.2939 26.8662L20.5713 8.14364C20.2778 7.83974 20.1154 7.43271 20.1191 7.01023C20.1227 6.58774 20.2922 6.1836 20.5909 5.88485C20.8897 5.5861 21.2938 5.41664 21.7163 5.41296C22.1388 5.40929 22.5458 5.57171 22.8497 5.86522L42.712 25.7275C43.0141 26.0297 43.1838 26.4395 43.1838 26.8667C43.1838 27.294 43.0141 27.7038 42.712 28.0059L22.8497 47.8682C22.7 48.0179 22.5223 48.1365 22.3268 48.2174C22.1312 48.2983 21.9216 48.3399 21.71 48.3398Z" fill="black"/>
</svg>
