<svg width="55" height="55" viewBox="0 0 55 55" fill="none" xmlns="http://www.w3.org/2000/svg">
<path d="M37.9199 48.3399C37.7083 48.34 37.4987 48.2984 37.3031 48.2174C37.1076 48.1365 36.9299 48.0179 36.7802 47.8683L16.9189 28.006C16.6169 27.7038 16.4472 27.294 16.4472 26.8668C16.4472 26.4395 16.6169 26.0297 16.9189 25.7276L36.7802 5.86526C36.9298 5.71559 37.1074 5.59685 37.3029 5.51582C37.4984 5.43479 37.7079 5.39306 37.9195 5.39301C38.1312 5.39296 38.3407 5.43459 38.5363 5.51553C38.7318 5.59646 38.9095 5.71512 39.0591 5.86472C39.2088 6.01433 39.3275 6.19195 39.4086 6.38744C39.4896 6.58293 39.5313 6.79247 39.5314 7.00409C39.5314 7.21571 39.4898 7.42527 39.4089 7.6208C39.3279 7.81633 39.2093 7.99401 39.0597 8.14368L20.3371 26.8662L39.0597 45.5888C39.2852 45.8141 39.4387 46.1013 39.501 46.414C39.5632 46.7266 39.5313 47.0507 39.4093 47.3453C39.2873 47.6398 39.0806 47.8915 38.8155 48.0685C38.5504 48.2456 38.2387 48.34 37.9199 48.3399Z" fill="black"/>
</svg>
